HIERARCHY
ROOT Hips
{
	OFFSET 0.000000 0.000000 0.000000
	CHANNELS 6 Xposition Yposition Zposition Zrotation Yrotation Xrotation 
	JOINT LHipJoint
	{
		OFFSET 0.000000 0.000000 0.000000
		CHANNELS 3 Zrotation Yrotation Xrotation
		JOINT LeftUpLeg
		{
			OFFSET 1.363060 -1.794630 0.839290
			CHANNELS 3 Zrotation Yrotation Xrotation
			JOINT LeftLeg
			{
				OFFSET 2.448110 -6.726130 0.000000
				CHANNELS 3 Zrotation Yrotation Xrotation
				JOINT LeftFoot
				{
					OFFSET 2.562200 -7.039590 0.000000
					CHANNELS 3 Zrotation Yrotation Xrotation
					JOINT LeftToeBase
					{
						OFFSET 0.157640 -0.433110 2.322550
						CHANNELS 3 Zrotation Yrotation Xrotation
						End Site
						{
							OFFSET 0.000000 0.000000 0.000000
						}
					}
				}
			}
		}
	}
	JOINT RHipJoint
	{
		OFFSET 0.000000 0.000000 0.000000
		CHANNELS 3 Zrotation Yrotation Xrotation
		JOINT RightUpLeg
		{
			OFFSET -1.305520 -1.794630 0.839290
			CHANNELS 3 Zrotation Yrotation Xrotation
			JOINT RightLeg
			{
				OFFSET -2.542530 -6.985550 0.000000
				CHANNELS 3 Zrotation Yrotation Xrotation
				JOINT RightFoot
				{
					OFFSET -2.568260 -7.056230 0.000000
					CHANNELS 3 Zrotation Yrotation Xrotation
					JOINT RightToeBase
					{
						OFFSET -0.164730 -0.452590 2.363150
						CHANNELS 3 Zrotation Yrotation Xrotation
						End Site
						{
							OFFSET 0.000000 0.000000 0.000000
						}
					}
				}
			}
		}
	}
}
MOTION
Frames: 11
Frame Time: 0.008333
2.265261 17.456837 2.912032 -42.564203 -27.171884 49.087808 -19.259058 -2.551866 6.649863 35.993521 -5.239442 -27.218308 3.915623 0.428823 12.512685 0.913756 2.771371 -5.075447 0.274000 -0.000000 -54.674400 3.937744 2.991860 5.950631 -25.483139 -16.673233 -54.835422 1.800594 0.996877 -1.432027 -1.660974 -11.012461 17.255138 -5.145300 -0.000000 -62.735400
2.249859 17.447814 2.921318 -42.879867 -27.655828 49.151400 -19.242052 -2.614826 6.563287 35.642785 -4.430779 -27.049606 3.810557 0.419245 12.830429 0.818262 2.207441 -5.375103 0.212000 0.000000 -54.820300 3.960466 2.976417 5.792488 -24.375029 -16.207156 -55.686098 1.957913 0.794127 0.969625 -1.593308 -10.473815 18.736652 -5.092100 0.000000 -64.180200
2.233776 17.439020 2.928762 -43.164276 -28.117306 49.177117 -19.218382 -2.670627 6.471429 35.280913 -3.596437 -26.885273 3.694002 0.413132 13.119883 0.707362 1.550562 -5.654906 0.150901 0.000000 -55.059100 3.994053 2.940212 5.621782 -23.481404 -15.562099 -56.262922 2.067048 0.584377 3.236361 -1.505467 -9.735237 20.485265 -4.938999 -0.000000 -65.442500
2.217423 17.430939 2.935166 -43.410622 -28.550959 49.186514 -19.189639 -2.717195 6.382149 34.922635 -2.776658 -26.745900 3.573762 0.409740 13.378159 0.591580 0.858922 -5.904443 0.096100 0.000000 -55.350101 4.037889 2.881906 5.457788 -22.791916 -14.744880 -56.593494 2.129705 0.384753 5.316078 -1.404373 -8.803025 22.312802 -4.647700 0.000000 -66.470000
2.201302 17.424192 2.940858 -43.618923 -28.956471 49.186360 -19.155730 -2.753853 6.295778 34.571965 -1.999592 -26.624126 3.455029 0.408382 13.593480 0.478261 0.175284 -6.113297 0.050200 0.000000 -55.654600 4.090765 2.803606 5.308617 -22.251573 -13.781811 -56.740359 2.157386 0.202374 7.224059 -1.293244 -7.679209 24.039100 -4.190300 0.000000 -67.332000
2.185390 17.419087 2.946634 -43.770501 -29.319812 49.188965 -19.116138 -2.774129 6.227883 34.241130 -1.331142 -26.550990 3.346776 0.407197 13.773349 0.378966 -0.431010 -6.280697 0.015200 -0.000000 -55.929800 4.152871 2.708115 5.183424 -21.796177 -12.739463 -56.783246 2.164638 0.038767 8.995082 -1.175980 -6.405334 25.516918 -3.578700 0.000001 -68.054600
2.169924 17.415987 2.952523 -43.864701 -29.638978 49.188446 -19.070298 -2.776437 6.178782 33.930084 -0.798189 -26.511974 3.252757 0.405597 13.912188 0.298310 -0.928669 -6.404735 -0.009700 0.000000 -56.147400 4.222892 2.599764 5.077831 -21.355353 -11.664913 -56.776713 2.163543 -0.109119 10.675765 -1.055939 -5.048770 26.655816 -2.857100 0.000001 -68.715400
2.154817 17.415087 2.958613 -43.897167 -29.909663 49.180022 -19.018268 -2.758468 6.151932 33.641472 -0.424200 -26.502386 3.176159 0.402962 14.010745 0.239608 -1.293903 -6.487430 -0.026000 0.000000 -56.285200 4.299935 2.482377 4.986421 -20.869764 -10.606881 -56.756625 2.163008 -0.244752 12.297472 -0.937232 -3.701185 27.422739 -2.096800 -0.000000 -69.370700
2.140080 17.416285 2.964910 -43.871798 -30.131829 49.157690 -18.961044 -2.719812 6.147654 33.376803 -0.218083 -26.512117 3.118391 0.399314 14.072012 0.203779 -1.517859 -6.533540 -0.034999 -0.000000 -56.332800 4.382348 2.358859 4.901439 -20.297197 -9.597994 -56.731647 2.167600 -0.370407 13.869838 -0.824839 -2.462072 27.835132 -1.377500 0.000000 -70.041100
2.125314 17.419794 2.970812 -43.789799 -30.316680 49.106659 -18.893857 -2.661035 6.158660 33.120761 -0.171880 -26.515956 3.076300 0.394440 14.092495 0.188978 -1.609442 -6.547311 -0.038401 0.000000 -56.284800 4.472103 2.232825 4.814879 -19.620444 -8.659222 -56.691391 2.177642 -0.488453 15.388672 -0.722700 -1.398217 27.950814 -0.755800 -0.000000 -70.804699
2.110463 17.425045 2.976563 -43.662654 -30.469317 49.033175 -18.821431 -2.584911 6.184787 32.880007 -0.266236 -26.513994 3.048876 0.389243 14.082849 0.192650 -1.583995 -6.538036 -0.037200 0.000000 -56.151500 4.565734 2.103378 4.723758 -18.835233 -7.787966 -56.614612 2.192373 -0.596548 16.818205 -0.635613 -0.578837 27.843699 -0.282800 -0.000001 -71.606400
